<?xml version="1.0" encoding="UTF-8" standalone="no"?>
<!-- Created with Inkscape (http://www.inkscape.org/) -->

<svg
   xmlns:dc="http://purl.org/dc/elements/1.1/"
   xmlns:cc="http://creativecommons.org/ns#"
   xmlns:rdf="http://www.w3.org/1999/02/22-rdf-syntax-ns#"
   xmlns:svg="http://www.w3.org/2000/svg"
   xmlns="http://www.w3.org/2000/svg"
   xmlns:sodipodi="http://sodipodi.sourceforge.net/DTD/sodipodi-0.dtd"
   xmlns:inkscape="http://www.inkscape.org/namespaces/inkscape"
   width="210mm"
   height="297mm"
   viewBox="0 0 210 297"
   version="1.1"
   id="svg8"
   inkscape:version="0.92.4 (5da689c313, 2019-01-14)"
   sodipodi:docname="battleshock_fixed.svg">
  <defs
     id="defs2" />
  <sodipodi:namedview
     id="base"
     pagecolor="#ffffff"
     bordercolor="#666666"
     borderopacity="1.0"
     inkscape:pageopacity="0.0"
     inkscape:pageshadow="2"
     inkscape:zoom="1.4"
     inkscape:cx="-203.54779"
     inkscape:cy="927.39637"
     inkscape:document-units="mm"
     inkscape:current-layer="layer1"
     showgrid="false"
     inkscape:snap-bbox="false"
     inkscape:bbox-nodes="false"
     inkscape:snap-bbox-edge-midpoints="false"
     inkscape:window-width="1680"
     inkscape:window-height="987"
     inkscape:window-x="-8"
     inkscape:window-y="-8"
     inkscape:window-maximized="1"
     inkscape:object-paths="true"
     inkscape:snap-bbox-midpoints="true"
     inkscape:snap-nodes="false"
     inkscape:snap-object-midpoints="true"
     inkscape:object-nodes="false" />
  <metadata
     id="metadata5">
    <rdf:RDF>
      <cc:Work
         rdf:about="">
        <dc:format>image/svg+xml</dc:format>
        <dc:type
           rdf:resource="http://purl.org/dc/dcmitype/StillImage" />
        <dc:title></dc:title>
      </cc:Work>
    </rdf:RDF>
  </metadata>
  <g
     inkscape:label="Layer 1"
     inkscape:groupmode="layer"
     id="layer1">
    <g
       aria-label="Shocked"
       transform="matrix(0.65971187,0,0,0.65971187,205.69626,-118.71761)"
       style="font-style:normal;font-variant:normal;font-weight:normal;font-stretch:normal;font-size:8px;line-height:10.00000015%;font-family:sans-serif;-inkscape-font-specification:sans-serif;letter-spacing:0px;word-spacing:0px;fill:#000000;fill-opacity:1;stroke:none;stroke-width:0.40105891px;stroke-linecap:butt;stroke-linejoin:miter;stroke-opacity:1"
       id="flowRoot829">
      <path
         d="m -288.73242,199.1713 q 0.4375,-0.92969 1.82422,-0.92969 0.73047,0 1.53906,0.20703 0.80859,0.20313 1.91797,0.5625 -0.0859,0.19532 -0.36719,0.97657 -0.28125,0.78125 -0.30469,0.78125 -0.0312,-0.0312 -0.35937,-0.20313 -0.32422,-0.17578 -0.71094,-0.33984 -0.38281,-0.16407 -0.625,-0.19141 -0.10937,-0.0117 -0.51172,-0.12109 -0.39844,-0.10938 -0.59375,-0.10938 -0.17969,0 -0.27344,0.0703 -0.16015,0.11329 -0.16015,0.26563 0,0.14062 0.13281,0.30859 0.13281,0.16407 0.34766,0.32813 0.21484,0.16406 0.47656,0.32031 0.26172,0.15625 0.51562,0.28125 0.52344,0.25781 0.90625,0.58984 0.38672,0.32813 0.60157,0.65625 0.21484,0.32813 0.3125,0.66797 0.10156,0.33594 0.10156,0.63672 0,0.35547 -0.12891,0.64844 -0.23828,0.50391 -0.69922,0.73047 -0.46093,0.23047 -1.10156,0.23047 -0.36719,0 -0.82812,-0.0781 -0.45703,-0.0742 -0.88672,-0.1914 -0.42578,-0.11329 -0.90235,-0.26172 -0.47265,-0.15235 -0.83203,-0.26953 0.0586,-0.1211 0.19141,-0.47657 0.12891,-0.35937 0.22266,-0.62109 0.0898,-0.26172 0.16796,-0.46094 0.0742,-0.19922 0.0899,-0.19922 0.10937,0.0898 0.73437,0.39453 0.625,0.30079 0.96485,0.33985 0.125,0.0117 0.42578,0.0937 0.30078,0.082 0.41015,0.10937 0.11329,0.0273 0.26563,0.0273 0.17969,0 0.27344,-0.0703 0.17578,-0.1289 0.17578,-0.27343 0,-0.32032 -0.81641,-0.75 -0.5,-0.26172 -1.11328,-0.73047 -0.60937,-0.47266 -1.07031,-1.08985 -0.45703,-0.62109 -0.45703,-1.23828 0,-0.3164 0.14453,-0.62109 z"
         style="font-style:normal;font-variant:normal;font-weight:normal;font-stretch:normal;font-family:'Pokemon Solid';-inkscape-font-specification:'Pokemon Solid';stroke-width:0.40105891px"
         id="path1539" />
      <path
         d="m -282.4043,200.70646 q 0.69922,-0.23047 1.20703,-0.23047 0.46485,0 0.8086,0.19922 0.20703,0.12109 0.46484,0.36718 0.25781,0.24219 0.45313,0.53516 0.19922,0.29297 0.26562,0.57031 0.20703,0.83203 0.20703,1.45313 0,0.32812 -0.043,0.6914 -0.043,0.35938 -0.13281,0.92578 l -1.63281,0.0977 q 0.008,-0.19531 0.008,-0.5625 0,-1.53125 -0.42187,-2.60547 -0.16407,-0.40234 -0.32032,-0.40234 -0.20312,0 -0.44921,0.5625 -0.0586,0.13672 -0.0977,0.3125 -0.0352,0.17578 -0.0547,0.39453 -0.0156,0.21875 -0.0156,0.51562 0,0.60157 0.0703,1.52735 l -1.91797,0.22265 q -0.0312,-0.22656 -0.0391,-0.53125 -0.0117,-0.30468 -0.0156,-0.6289 -0.008,-0.32422 -0.0273,-0.58985 -0.0156,-0.26953 -0.0703,-0.60937 l -0.10547,-5.09375 1.60156,-0.19531 z"
         style="font-style:normal;font-variant:normal;font-weight:normal;font-stretch:normal;font-family:'Pokemon Solid';-inkscape-font-specification:'Pokemon Solid';stroke-width:0.40105891px"
         id="path1541" />
      <path
         d="m -275.82617,200.98771 q 0.27734,0.14843 0.44922,0.40234 0.17578,0.25 0.2539,0.56641 0.082,0.3125 0.082,0.65234 0,0.28125 -0.0469,0.54297 -0.043,0.26172 -0.12109,0.48047 -0.0781,0.21875 -0.1836,0.37109 -0.24609,0.36719 -0.52734,0.63281 -0.28125,0.26563 -0.57422,0.42969 -0.29297,0.16016 -0.58203,0.23438 -0.28516,0.0781 -0.56641,0.0781 -0.33203,0 -0.63281,-0.10547 -0.29688,-0.10156 -0.50781,-0.26953 -0.34766,-0.28906 -0.54297,-0.77734 -0.19531,-0.49219 -0.19531,-1.03907 0,-0.9414 0.54296,-1.51953 0.46485,-0.49609 0.96094,-0.74609 0.4961,-0.25391 1.01563,-0.25391 0.30468,0 0.58593,0.0781 0.28125,0.0742 0.58985,0.24219 z m -0.23047,0.65625 q -0.0664,0.29687 -0.28906,0.52343 -0.21875,0.22657 -0.42969,0.22657 -0.10547,0 -0.1875,-0.0547 -0.11719,-0.0937 -0.11719,-0.32813 0,-0.17968 0.11719,-0.35547 0.12109,-0.17578 0.37891,-0.27734 -0.25782,0 -0.5,0.0977 -0.23829,0.0977 -0.41016,0.2539 -0.17188,0.15235 -0.27734,0.34766 -0.10157,0.19141 -0.10157,0.38672 0,0.36328 0.33594,0.57812 0.3125,0.19922 0.59375,0.19922 0.27734,0 0.49219,-0.18359 0.21484,-0.1875 0.32812,-0.47656 0.11328,-0.29297 0.11328,-0.57813 0,-0.19531 -0.0469,-0.35937 z"
         style="font-style:normal;font-variant:normal;font-weight:normal;font-stretch:normal;font-family:'Pokemon Solid';-inkscape-font-specification:'Pokemon Solid';stroke-width:0.40105891px"
         id="path1543" />
      <path
         d="m -271.98633,200.57755 q 0.25,0.16016 0.44922,0.44531 0.20313,0.28125 0.3125,0.52344 0.10938,0.23828 0.14453,0.34375 l -1.44922,0.32031 q -0.0352,-0.19531 -0.20703,-0.25781 -0.17187,-0.0625 -0.35937,-0.0625 -0.99219,0.0937 -0.99219,1.18359 0.0273,0.86328 0.54297,0.96094 0.24609,0 0.44531,-0.12109 0.19922,-0.1211 0.33984,-0.32032 0.14454,-0.20312 0.23829,-0.45312 l 1.44921,0.29297 q -0.0234,0.0781 -0.11328,0.3125 -0.10156,0.26172 -0.47656,0.69922 -0.37109,0.4375 -0.82812,0.61328 -0.55079,0.21484 -1.09375,0.21484 -0.86719,0 -1.53907,-0.5664 -0.30468,-0.26563 -0.4414,-0.61719 -0.14063,-0.35156 -0.14063,-0.74219 0,-0.40625 0.11328,-0.80078 0.11328,-0.39453 0.27735,-0.71875 0.21484,-0.42188 0.47265,-0.71875 0.25782,-0.30078 0.53907,-0.48828 0.28515,-0.19141 0.58203,-0.28125 0.29687,-0.0899 0.59765,-0.0899 0.61719,0 1.13672,0.32813 z"
         style="font-style:normal;font-variant:normal;font-weight:normal;font-stretch:normal;font-family:'Pokemon Solid';-inkscape-font-specification:'Pokemon Solid';stroke-width:0.40105891px"
         id="path1545" />
      <path
         d="m -271.68945,198.69083 1.98437,-0.83203 0.28906,4.51172 1.63282,-0.89453 1.69531,0.2539 -2.21094,1.69532 2.08203,1.57031 0.0937,1.5664 -3.07031,-2.20703 0.0977,1.91797 -1.85938,0.0352 -0.35156,-6.78516 -0.57422,0.12891 z"
         style="font-style:normal;font-variant:normal;font-weight:normal;font-stretch:normal;font-family:'Pokemon Solid';-inkscape-font-specification:'Pokemon Solid';stroke-width:0.40105891px"
         id="path1547" />
      <path
         d="m -263.36133,203.05802 0.94141,1.13672 q -0.11328,0.32812 -0.53906,0.60156 -0.42188,0.27344 -1.00782,0.42969 -0.58203,0.16015 -1.16406,0.16015 -0.51562,0 -0.92187,-0.13672 -0.40235,-0.13671 -0.6211,-0.41406 -0.3789,-0.47656 -0.3789,-1.21875 0,-0.58594 0.21093,-1.15234 0.21485,-0.57031 0.45313,-0.79688 0.28515,-0.26953 0.61719,-0.44922 0.33593,-0.17968 0.69531,-0.26953 0.35937,-0.0898 0.73828,-0.0898 0.49609,0 0.94141,0.16016 0.44921,0.15625 0.78515,0.45703 l -2.14453,2.55859 q 0.28516,0 0.53906,-0.11719 0.25782,-0.12109 0.47266,-0.33984 0.21484,-0.22266 0.38281,-0.51953 z m -1.08203,-0.91016 q -0.19141,-0.0977 -0.39062,-0.0977 -0.21094,0 -0.41016,0.0859 -0.19531,0.0859 -0.27734,0.20313 -0.24219,0.3125 -0.24219,0.6875 0,0.13672 0.0273,0.26172 0.0274,0.125 0.0937,0.34375 z"
         style="font-style:normal;font-variant:normal;font-weight:normal;font-stretch:normal;font-family:'Pokemon Solid';-inkscape-font-specification:'Pokemon Solid';stroke-width:0.40105891px"
         id="path1549" />
      <path
         d="m -260.36914,201.39396 q -0.21484,0.0273 -0.42578,0.13671 -0.20703,0.10938 -0.35547,0.25782 -0.14844,0.14843 -0.23438,0.32812 -0.082,0.17578 -0.082,0.34766 0,0.35547 0.33594,0.57812 0.29688,0.19922 0.60156,0.19922 0.0586,0 0.16016,-0.0156 v -0.83203 q -0.10547,0 -0.1875,-0.0547 -0.11719,-0.0937 -0.11719,-0.35938 0,-0.38281 0.30469,-0.58593 z m -0.0352,-3.79297 1.63282,-0.73438 0.0976,5.28906 q 0.0312,0.20313 0.0312,0.46094 0,0.22656 -0.0156,0.33594 l 0.0469,2.39453 -1.75781,0.0937 v -0.23828 q -0.42969,0.17578 -0.86719,0.17578 -0.33594,0 -0.63281,-0.10156 -0.29297,-0.10156 -0.50781,-0.27344 -0.34766,-0.28906 -0.54297,-0.77734 -0.19531,-0.49219 -0.19531,-1.03907 0,-0.9414 0.54296,-1.51953 0.46875,-0.49218 0.96485,-0.74609 0.5,-0.25391 1.01953,-0.25391 0.14453,0 0.21875,0.008 z"
         style="font-style:normal;font-variant:normal;font-weight:normal;font-stretch:normal;font-family:'Pokemon Solid';-inkscape-font-specification:'Pokemon Solid';stroke-width:0.40105891px"
         id="path1551" />
    </g>
    <path
       inkscape:connector-curvature="0"
       style="opacity:1;fill:none;fill-opacity:1;stroke:#ff0000;stroke-width:0.1;stroke-linecap:round;stroke-linejoin:miter;stroke-miterlimit:4;stroke-dasharray:none;stroke-opacity:1"
       d="M 4.0070143,4.8724976 V 24.872312 h 0.00265 a 16,16 0 0 0 -0.00265,0.05012 16,16 0 0 0 16.0000577,16.000058 16,16 0 0 0 16.000055,-16.000058 16,16 0 0 0 -0.0016,-0.05012 h 0.0016 V 4.8724976 Z"
       id="path831" />
    <g
       id="g901"
       transform="translate(78.309972,-64.946495)">
      <path
         class="st2"
         d="m -46.492875,82.705625 c 0.0042,0.285427 -0.02068,0.574991 -0.0455,0.856281 -0.0083,0.103415 -0.01655,0.202694 -0.02482,0.306109 -0.05791,0.827323 -0.595672,1.571914 -1.071384,2.229637 l -0.07032,0.09928 c -0.0455,0.06205 -0.09101,0.124098 -0.136508,0.186147 -0.04137,0.05791 -0.08273,0.115825 -0.128235,0.169602 0.59981,-1.344401 0.616356,-2.970092 0.624629,-3.640224 0.392979,-0.124098 0.694952,-0.153054 0.852143,-0.206831 z m -24.600464,-1.133433 c 0,0 0,0 0,0 -0.28129,-0.115825 -0.566717,-0.227513 -0.864553,-0.339202 -0.01655,-0.0083 -0.03723,-0.01241 -0.05378,-0.02068 -0.136508,-0.04964 -0.277154,-0.09928 -0.413662,-0.144782 -0.02068,-0.0083 -0.0455,-0.01655 -0.06619,-0.02068 -0.144783,-0.04964 -0.289564,-0.09514 -0.438483,-0.144782 0.02896,0.09514 0.06619,0.223378 0.115827,0.397116 0.02895,0.103415 0.05791,0.210967 0.07032,0.235787 0.124098,0.310246 0.26888,0.620492 0.446755,0.955558 0.289562,0.550171 0.603945,1.112751 0.926601,1.671194 0.0786,0.132372 0.153055,0.264743 0.231651,0.392979 0.07446,0.128235 0.153055,0.252333 0.227514,0.376432 -0.426072,-1.559505 -0.264743,-2.879086 -0.182011,-3.358934 z"
         id="path8"
         inkscape:connector-curvature="0"
         style="fill:#000000;stroke-width:0.26458332" />
      <path
         class="st3"
         d="m -62.753918,91.913736 c 0,0.641176 -0.413662,1.158253 -0.926603,1.158253 -0.508804,0 -0.926602,-0.521214 -0.926602,-1.158253 0,-0.637039 0.413662,-1.158253 0.926602,-1.158253 0.512941,0 0.926603,0.521214 0.926603,1.158253 z m 7.607239,-1.158253 c -0.508803,0 -0.926603,0.521214 -0.926603,1.158253 0,0.637039 0.413663,1.158253 0.926603,1.158253 0.508805,0 0.926603,-0.521214 0.926603,-1.158253 0,-0.637039 -0.413663,-1.158253 -0.926603,-1.158253 z m -4.955667,2.887359 c -0.405389,0 -0.665996,0.140645 -0.665996,0.239924 0,0.09928 0.260607,0.239924 0.665996,0.239924 0.405388,0 0.665995,-0.140645 0.665995,-0.239924 0,-0.09928 -0.260607,-0.239924 -0.665995,-0.239924 z"
         id="path10"
         inkscape:connector-curvature="0"
         style="fill:#000000;stroke-width:0.26458332" />
      <path
         class="st0"
         d="m -63.519193,91.516621 c 0,0.21924 -0.177874,0.397115 -0.397115,0.397115 -0.21924,0 -0.397115,-0.177875 -0.397115,-0.397115 0,-0.219241 0.177875,-0.397116 0.397115,-0.397116 0.219241,0 0.397115,0.177875 0.397115,0.397116 z m 8.136728,-0.397116 c -0.219242,0 -0.397115,0.177875 -0.397115,0.397116 0,0.21924 0.177873,0.397115 0.397115,0.397115 0.219241,0 0.397115,-0.177875 0.397115,-0.397115 0,-0.219241 -0.177874,-0.397116 -0.397115,-0.397116 z"
         id="path12"
         inkscape:connector-curvature="0"
         style="fill:#ffffff;stroke-width:0.26458332" />
      <path
         class="st4"
         d="m -51.001788,95.661511 c 0,0.769411 -0.719771,1.389903 -1.609144,1.389903 -0.889372,0 -1.609144,-0.620492 -1.609144,-1.389903 0,-0.769411 0.719772,-1.389903 1.609144,-1.389903 0.889373,0 1.609144,0.620492 1.609144,1.389903 z m -15.619868,-1.389903 c -0.823186,0 -1.489182,0.57499 -1.489182,1.286488 0,0.711498 0.665996,1.286488 1.489182,1.286488 0.823187,0 1.489182,-0.57499 1.489182,-1.286488 0,-0.711498 -0.665995,-1.286488 -1.489182,-1.286488 z"
         id="path14"
         inkscape:connector-curvature="0"
         style="fill:#000000;stroke-width:0.26458332" />
      <path
         class="st6"
         d="m -46.273633,82.55257 -0.0042,-0.144781 -0.136509,0.0455 c -0.05791,0.01655 -5.840903,1.865615 -9.617635,3.95047 -0.442618,-0.05378 -4.835706,-0.53776 -7.445912,0.136509 -0.03723,0.0083 -0.34334,-0.372296 -0.376433,-0.409526 -0.24406,-0.252334 -0.50053,-0.496394 -0.757,-0.732181 -0.819044,-0.744591 -1.70428,-1.422996 -2.630883,-2.035216 -1.278214,-0.84387 -2.643298,-1.555368 -4.066295,-2.122085 -0.289562,-0.115825 -0.583263,-0.227513 -0.881099,-0.330929 -0.182011,-0.06205 -0.359885,-0.140645 -0.541898,-0.202695 -0.177874,-0.05791 -0.384704,-0.144781 -0.442617,0.119963 -0.02896,0.128235 0.06619,0.25647 0.103415,0.372295 0.339202,1.083794 0.947286,2.088992 1.514002,3.065233 0.955559,1.646374 2.039352,3.251382 3.37548,4.616466 0.231651,0.235787 0.471575,0.467438 0.715635,0.686679 -0.0083,0.01655 -0.01241,0.02895 -0.01241,0.03309 0,0.0042 -0.0042,0.0083 -0.0042,0.01655 -0.413662,0.864553 -2.705348,5.890543 -1.460225,8.595892 0.06619,0.144781 0.132371,0.289563 0.198557,0.434344 0.144782,0.314382 0.293699,0.641176 0.446754,0.959695 0.05791,0.115824 0.128236,0.235787 0.194421,0.351611 0.148918,0.252336 0.301973,0.517076 0.33093,0.777686 0.0042,0.13237 -0.260607,1.28236 -0.376432,1.49747 0,0 0.384705,0 0.384705,0 0.0786,0 0.173738,-0.83974 0.186148,-0.94729 0.05378,-0.38058 0.140645,-0.69496 0.01655,-1.05899 -0.252334,-0.732173 -0.848007,-1.443673 -1.129297,-2.159309 -0.364022,-0.926602 -0.372296,-1.86975 -0.248197,-2.841856 0.132372,-1.058974 0.492258,-2.101401 0.839733,-3.110736 0.248198,-0.728045 1.427133,-3.38789 1.621555,-3.636087 0.02068,-0.02895 0.0455,-0.06619 0.02895,-0.09928 -0.02482,-0.0455 -0.09514,-0.02895 -0.140645,0 -0.24406,0.153055 -0.426071,0.380569 -0.608082,0.603946 -0.08687,0.107552 -0.173738,0.2937 -0.173738,0.2937 0,0 -2.043489,-2.345462 -2.31237,-2.721894 -0.25647,-0.359886 -0.637039,-0.723908 -0.78182,-1.145843 -0.364023,-1.050701 -0.409526,-2.064172 -0.33093,-3.152103 0.0042,-0.0455 0.153055,-0.442618 0.144782,-0.450891 4.73229,2.022806 7.023976,4.889482 7.052933,4.922574 l 0.0455,0.05378 0.07032,0.05378 c 2.684665,-0.723908 7.491413,-0.0786 7.541053,-0.07032 0,0 5.038399,-2.486107 7.640332,-3.441665 0.277153,-0.103416 0.409525,-0.124099 0.686679,-0.219241 -0.04137,0.01655 -0.128235,1.348537 -0.157192,1.505728 -0.09928,0.550171 -0.103416,1.087931 -0.314382,1.605008 -0.227515,0.55017 -0.525351,1.050701 -0.876964,1.505729 -0.351612,0.459164 -0.757001,0.876963 -1.199619,1.269941 -0.392979,0.351613 -0.802503,0.537761 -1.274077,0.781821 -0.260608,0.136509 -0.455029,-0.02068 -0.641177,-0.173738 -0.248197,-0.20683 -0.52535,-0.397115 -0.835597,-0.50053 -0.05791,-0.02068 -0.119961,0.01241 -0.140644,0.07032 -0.02068,0.05791 0.01241,0.119962 0.07032,0.140645 0.992788,0.33093 1.629827,1.323718 2.026942,2.246183 0.500531,1.166526 0.665995,2.424058 0.939012,3.648497 0.483985,2.188272 0.901783,4.546144 1.249259,7.019851 h 0.297856 c -0.347476,-2.490256 -0.769411,-4.864673 -1.253394,-7.065354 -0.05791,-0.273016 -0.115827,-0.546033 -0.169603,-0.814914 -0.09928,-0.483984 -0.202693,-0.988651 -0.326791,-1.476772 -0.169603,-0.657722 -0.426072,-1.501592 -0.901784,-2.233773 -0.07446,-0.111689 -0.202694,-0.28129 -0.289562,-0.388843 0.07859,-0.0455 0.177873,-0.103415 0.235786,-0.144781 0.132372,-0.09514 0.256471,-0.194421 0.35575,-0.26888 0.194421,-0.153055 0.351613,-0.277154 0.492257,-0.397115 0.996925,-0.835597 1.919391,-1.853205 2.821173,-3.110737 l 0.07032,-0.09928 c 0.492259,-0.682541 1.046564,-1.456089 1.112751,-2.345462 0.0083,-0.09928 0.01654,-0.202694 0.02482,-0.301973 0.01242,-0.330929 0.04136,-0.678405 0.02482,-1.025881 z m -25.100996,1.605008 c -0.322656,-0.558443 -0.637039,-1.121023 -0.926602,-1.671193 -0.173738,-0.33093 -0.322656,-0.645312 -0.446755,-0.955559 -0.0083,-0.02482 -0.04136,-0.132372 -0.07032,-0.235787 -0.04964,-0.173738 -0.08687,-0.301973 -0.115827,-0.397115 0.645313,0.202694 1.257533,0.430208 1.836659,0.670132 -0.08273,0.479848 -0.24406,1.799428 0.177875,3.358933 -0.148918,-0.248197 -0.301973,-0.504668 -0.455028,-0.769411 z m 24.836251,-0.595672 c -0.0083,0.103415 -0.01655,0.202694 -0.02482,0.306109 -0.05791,0.827323 -0.595673,1.571914 -1.071384,2.229637 l -0.07032,0.09928 c -0.08687,0.124098 -0.173738,0.239923 -0.264744,0.359885 0.608082,-1.360947 0.628767,-2.945271 0.641176,-3.598857 0.351613,-0.119962 0.686678,-0.20683 0.835596,-0.25647 0.0042,0.2937 -0.02068,0.583263 -0.0455,0.860417 z m -17.212465,6.9702 c -0.591536,0 -1.071384,0.661858 -1.071384,1.38163 0,0.719771 0.554307,1.307171 1.145843,1.307171 0.84387,0 1.025881,-0.5874 1.071384,-1.307171 0.06205,-0.959695 -0.554307,-1.38163 -1.145843,-1.38163 z m -0.852143,1.38163 c 0,-0.641176 0.413661,-1.158253 0.926602,-1.158253 0.508804,0 0.926602,0.521214 0.926602,1.158253 0,0.637039 -0.413662,1.158253 -0.926602,1.158253 -0.512941,0.0042 -0.926602,-0.517077 -0.926602,-1.158253 z m 9.456307,-1.38163 c -0.591536,0 -1.071384,0.661858 -1.071384,1.38163 0,0.719771 0.479848,1.38163 1.071384,1.38163 0.848007,0 1.145844,-0.661859 1.145844,-1.38163 0,-0.719772 -0.554308,-1.38163 -1.145844,-1.38163 z m -0.922466,1.38163 c 0,-0.641176 0.413663,-1.158253 0.926603,-1.158253 0.508803,0 0.926603,0.521214 0.926603,1.158253 0,0.637039 -0.413663,1.158253 -0.926603,1.158253 -0.51294,0.0042 -0.926603,-0.517077 -0.926603,-1.158253 z m -3.884283,1.505729 c -0.463302,0 -1.013472,0.248197 -0.963832,0.463301 0.07859,0.326793 0.351612,0.388842 0.814914,0.388842 0.463301,0 0.814913,-0.165465 0.814913,-0.388842 0,-0.223378 -0.202694,-0.463301 -0.665995,-0.463301 z m -0.148918,0.703225 c -0.405389,0 -0.665996,-0.140645 -0.665996,-0.239924 0,-0.09928 0.260607,-0.239924 0.665996,-0.239924 0.405388,0 0.665995,0.140645 0.665995,0.239924 0,0.09928 -0.260607,0.239924 -0.665995,0.239924 z m 0.603945,1.538821 c -1.071383,0.06619 -1.811838,0.488122 -1.811838,1.269942 0,0.79423 0.773548,1.716696 1.811838,1.716696 0.467438,0 1.046565,-0.119961 1.398177,-0.471574 0.231651,-0.231651 0.343339,-0.566717 0.339202,-1.021745 -0.0041,-1.38163 -0.53776,-1.567778 -1.737379,-1.493319 z m -1.588461,1.269942 c 0,-0.694952 0.608083,-1.125159 1.592598,-1.125159 0.926603,0 1.584324,0.09514 1.592598,1.344399 0,0.413663 -0.09514,0.715637 -0.297837,0.918329 -0.24406,0.244062 -0.641175,0.35575 -1.294761,0.35575 -0.955558,0 -1.592598,-0.769411 -1.592598,-1.493319 z"
         id="path18"
         inkscape:connector-curvature="0"
         style="fill:#000000;stroke-width:0.26458332" />
    </g>
    <g
       aria-label="Battle"
       transform="matrix(0.65971187,0,0,0.65971187,196.0888,-125.11372)"
       style="font-style:normal;font-variant:normal;font-weight:normal;font-stretch:normal;font-size:8px;line-height:10.00000015%;font-family:sans-serif;-inkscape-font-specification:sans-serif;letter-spacing:0px;word-spacing:0px;fill:#000000;fill-opacity:1;stroke:none;stroke-width:0.40105891px;stroke-linecap:butt;stroke-linejoin:miter;stroke-opacity:1"
       id="flowRoot917">
      <path
         d="m -286.42773,199.74552 0.32031,1.73047 q 0.14062,-0.1211 0.42578,-0.39844 0.28906,-0.27734 0.57031,-0.63281 0.28125,-0.35938 0.28125,-0.58594 0,-0.18359 -0.22265,-0.24219 -0.1875,-0.0391 -0.34375,-0.0391 -0.19922,0 -0.39063,0.0352 -0.19141,0.0312 -0.64062,0.13281 z m 0.89453,3.77734 q 0.58984,-0.24609 0.77343,-0.48437 0.1875,-0.24219 0.1875,-0.44532 0,-0.16796 -0.23828,-0.42187 -0.23437,-0.25391 -0.37109,-0.28125 -0.17578,0.17578 -0.32813,0.26953 -0.15234,0.0898 -0.21484,0.11328 z m 2.30468,-1.69531 q 0.39844,0.62891 0.39844,1.19141 0,0.6914 -0.53125,1.16015 -0.52734,0.46875 -1.05859,0.67578 -0.53125,0.20703 -0.79297,0.26563 l -1.34375,0.35547 -1.28125,-5.1211 q -0.0273,0 -0.0937,0.0703 -0.0625,0.0703 -0.16406,0.19531 -0.0977,0.12109 -0.125,0.14844 -0.0117,0 -0.0781,-0.16797 -0.0625,-0.16797 -0.17187,-0.46485 -0.10547,-0.30078 -0.23828,-0.66406 -0.13672,-0.36719 -0.1836,-0.46094 0.47266,-0.15625 0.88672,-0.28906 0.41797,-0.13281 0.87891,-0.25 0.46093,-0.12109 0.8789,-0.19141 0.42188,-0.0703 0.82813,-0.0703 0.3164,0 0.58203,0.0508 0.26562,0.0469 0.5,0.16016 0.23828,0.11328 0.42187,0.30469 0.1875,0.1875 0.30469,0.44531 0.0469,0.10547 0.0469,0.23047 0,0.51953 -0.78516,1.46484 0.14453,0.0195 0.46094,0.21485 0.3164,0.19531 0.66015,0.74609 z"
         style="font-style:normal;font-variant:normal;font-weight:normal;font-stretch:normal;font-family:'Pokemon Solid';-inkscape-font-specification:'Pokemon Solid';stroke-width:0.40105891px"
         id="path1554" />
      <path
         d="m -281.18164,201.39396 q -0.21484,0.0273 -0.42578,0.13671 -0.20703,0.10938 -0.35547,0.25782 -0.14844,0.14843 -0.23438,0.32812 -0.082,0.17578 -0.082,0.34766 0,0.35547 0.33594,0.57812 0.29688,0.19922 0.60156,0.19922 0.0586,0 0.16016,-0.0156 v -0.83203 q -0.10547,0 -0.1875,-0.0547 -0.11719,-0.0937 -0.11719,-0.35938 0,-0.38281 0.30469,-0.58593 z m 0.0312,-0.6875 1.63281,-0.73438 0.0312,2.18359 q 0.0312,0.20313 0.0312,0.46094 0,0.22656 -0.0156,0.33594 l 0.0469,2.39453 -1.75781,0.0937 v -0.23828 q -0.42969,0.17578 -0.86719,0.17578 -0.33594,0 -0.63281,-0.10156 -0.29297,-0.10156 -0.50781,-0.27344 -0.34766,-0.28906 -0.54297,-0.77734 -0.19531,-0.49219 -0.19531,-1.03907 0,-0.9414 0.54296,-1.51953 0.46875,-0.49218 0.96485,-0.74609 0.5,-0.25391 1.01953,-0.25391 0.14453,0 0.21875,0.008 z"
         style="font-style:normal;font-variant:normal;font-weight:normal;font-stretch:normal;font-family:'Pokemon Solid';-inkscape-font-specification:'Pokemon Solid';stroke-width:0.40105891px"
         id="path1556" />
      <path
         d="m -279.04102,198.37052 1.70704,-0.76953 -0.0274,2.625 1.27344,0.0312 v 1.5039 l -1.32031,0.0156 q -0.0703,0.55469 -0.0703,1.04297 0,0.40625 0.0469,0.67187 0.0391,0.21875 0.19531,0.33594 0.15625,0.11719 0.36328,0.11719 0.23047,0 0.40235,-0.13672 0.17578,-0.13672 0.17578,-0.375 0,-0.0352 -0.0156,-0.13672 l 1.27735,-0.83203 q 0.082,0.15234 0.20312,0.51172 0.125,0.35937 0.125,0.78515 0,0.51172 -0.26953,0.92578 -0.26953,0.41407 -0.92187,0.62891 -0.45704,0.14844 -0.86329,0.14844 -0.61328,0 -1.08203,-0.26953 -0.46484,-0.26953 -0.77343,-0.64844 -0.14454,-0.17578 -0.22657,-0.58203 -0.0781,-0.40625 -0.10156,-0.84766 -0.0234,-0.4414 -0.0234,-0.88281 v -0.44141 l -1.15234,0.0352 -0.28906,-1.76172 1.45703,0.0977 z"
         style="font-style:normal;font-variant:normal;font-weight:normal;font-stretch:normal;font-family:'Pokemon Solid';-inkscape-font-specification:'Pokemon Solid';stroke-width:0.40105891px"
         id="path1558" />
      <path
         d="m -274.04102,198.37052 1.70704,-0.76953 -0.0274,2.625 1.27344,0.0312 v 1.5039 l -1.32031,0.0156 q -0.0703,0.55469 -0.0703,1.04297 0,0.40625 0.0469,0.67187 0.0391,0.21875 0.19531,0.33594 0.15625,0.11719 0.36328,0.11719 0.23047,0 0.40235,-0.13672 0.17578,-0.13672 0.17578,-0.375 0,-0.0352 -0.0156,-0.13672 l 1.27735,-0.83203 q 0.082,0.15234 0.20312,0.51172 0.125,0.35937 0.125,0.78515 0,0.51172 -0.26953,0.92578 -0.26953,0.41407 -0.92187,0.62891 -0.45704,0.14844 -0.86329,0.14844 -0.61328,0 -1.08203,-0.26953 -0.46484,-0.26953 -0.77343,-0.64844 -0.14454,-0.17578 -0.22657,-0.58203 -0.0781,-0.40625 -0.10156,-0.84766 -0.0234,-0.4414 -0.0234,-0.88281 v -0.44141 l -1.15234,0.0352 -0.28906,-1.76172 1.45703,0.0977 z"
         style="font-style:normal;font-variant:normal;font-weight:normal;font-stretch:normal;font-family:'Pokemon Solid';-inkscape-font-specification:'Pokemon Solid';stroke-width:0.40105891px"
         id="path1560" />
      <path
         d="m -267.59961,206.21036 -1.76172,0.0977 -0.35156,-6.78516 -0.57422,0.12891 0.19141,-0.96094 1.98437,-0.83203 z"
         style="font-style:normal;font-variant:normal;font-weight:normal;font-stretch:normal;font-family:'Pokemon Solid';-inkscape-font-specification:'Pokemon Solid';stroke-width:0.40105891px"
         id="path1562" />
      <path
         d="m -264.17383,203.05802 0.94141,1.13672 q -0.11328,0.32812 -0.53906,0.60156 -0.42188,0.27344 -1.00782,0.42969 -0.58203,0.16015 -1.16406,0.16015 -0.51562,0 -0.92187,-0.13672 -0.40235,-0.13671 -0.6211,-0.41406 -0.3789,-0.47656 -0.3789,-1.21875 0,-0.58594 0.21093,-1.15234 0.21485,-0.57031 0.45313,-0.79688 0.28515,-0.26953 0.61719,-0.44922 0.33593,-0.17968 0.69531,-0.26953 0.35937,-0.0898 0.73828,-0.0898 0.49609,0 0.94141,0.16016 0.44921,0.15625 0.78515,0.45703 l -2.14453,2.55859 q 0.28516,0 0.53906,-0.11719 0.25782,-0.12109 0.47266,-0.33984 0.21484,-0.22266 0.38281,-0.51953 z m -1.08203,-0.91016 q -0.19141,-0.0977 -0.39062,-0.0977 -0.21094,0 -0.41016,0.0859 -0.19531,0.0859 -0.27734,0.20313 -0.24219,0.3125 -0.24219,0.6875 0,0.13672 0.0273,0.26172 0.0274,0.125 0.0937,0.34375 z"
         style="font-style:normal;font-variant:normal;font-weight:normal;font-stretch:normal;font-family:'Pokemon Solid';-inkscape-font-specification:'Pokemon Solid';stroke-width:0.40105891px"
         id="path1564" />
    </g>
  </g>
</svg>
