<?xml version="1.0" encoding="UTF-8" standalone="no"?>
<!-- Created with Inkscape (http://www.inkscape.org/) -->

<svg
   width="24in"
   height="12in"
   viewBox="0 0 609.60001 304.8"
   version="1.1"
   id="svg1"
   inkscape:version="1.3.2 (091e20e, 2023-11-25, custom)"
   sodipodi:docname="paintRack.svg"
   xmlns:inkscape="http://www.inkscape.org/namespaces/inkscape"
   xmlns:sodipodi="http://sodipodi.sourceforge.net/DTD/sodipodi-0.dtd"
   xmlns="http://www.w3.org/2000/svg"
   xmlns:svg="http://www.w3.org/2000/svg">
  <sodipodi:namedview
     id="namedview1"
     pagecolor="#ffffff"
     bordercolor="#666666"
     borderopacity="1.0"
     inkscape:showpageshadow="2"
     inkscape:pageopacity="0.0"
     inkscape:pagecheckerboard="0"
     inkscape:deskcolor="#d1d1d1"
     inkscape:document-units="in"
     inkscape:zoom="0.18017502"
     inkscape:cx="1839.8777"
     inkscape:cy="1035.1047"
     inkscape:window-width="1680"
     inkscape:window-height="987"
     inkscape:window-x="1672"
     inkscape:window-y="-8"
     inkscape:window-maximized="1"
     inkscape:current-layer="layer1" />
  <defs
     id="defs1">
    <rect
       x="108.2281"
       y="1315.3877"
       width="921.3264"
       height="334.39708"
       id="rect1" />
  </defs>
  <g
     inkscape:label="Layer 1"
     inkscape:groupmode="layer"
     id="layer1">
    <g
       id="g401"
       transform="translate(-273.28633,-1.7525338)">
      <rect
         style="fill:#000000;stroke:none;stroke-width:0.299999;stroke-linecap:round"
         id="rect400"
         width="152.39999"
         height="63.5"
         x="-521.2323"
         y="-804.41504"
         transform="matrix(0,-1,-1,0,0,0)" />
      <circle
         style="fill:#ff00ff;stroke:none;stroke-width:0.3;stroke-linecap:round"
         id="circle356"
         cx="-502.13226"
         cy="-788.54004"
         r="12.7"
         transform="matrix(0,-1,-1,0,0,0)" />
      <circle
         style="fill:#ff00ff;stroke:none;stroke-width:0.3;stroke-linecap:round"
         id="circle362"
         cx="-473.58228"
         cy="-788.54004"
         r="12.7"
         transform="matrix(0,-1,-1,0,0,0)" />
      <circle
         style="fill:#ff00ff;stroke:none;stroke-width:0.3;stroke-linecap:round"
         id="circle363"
         cx="-445.03229"
         cy="-788.54004"
         r="12.7"
         transform="matrix(0,-1,-1,0,0,0)" />
      <circle
         style="fill:#ff00ff;stroke:none;stroke-width:0.3;stroke-linecap:round"
         id="circle364"
         cx="-416.4823"
         cy="-788.54004"
         r="12.7"
         transform="matrix(0,-1,-1,0,0,0)" />
      <circle
         style="fill:#ff00ff;stroke:none;stroke-width:0.3;stroke-linecap:round"
         id="circle365"
         cx="-387.93231"
         cy="-788.54004"
         r="12.7"
         transform="matrix(0,-1,-1,0,0,0)" />
      <rect
         style="fill:#ff00ff;stroke:none;stroke-width:0.3;stroke-linecap:round"
         id="rect365"
         width="3.2"
         height="6.3499999"
         x="-521.23224"
         y="-804.41504"
         transform="matrix(0,-1,-1,0,0,0)" />
      <rect
         style="fill:#ff00ff;stroke:none;stroke-width:0.3;stroke-linecap:round"
         id="rect366"
         width="3.2"
         height="6.3499999"
         x="-372.03229"
         y="-804.41504"
         transform="matrix(0,-1,-1,0,0,0)" />
      <rect
         style="fill:#ff00ff;stroke:none;stroke-width:0.3;stroke-linecap:round"
         id="rect367"
         width="3.2"
         height="6.3499999"
         x="-521.2323"
         y="740.91504"
         transform="rotate(-90)" />
      <rect
         style="fill:#ff00ff;stroke:none;stroke-width:0.3;stroke-linecap:round"
         id="rect368"
         width="3.2"
         height="6.3499999"
         x="-372.03232"
         y="740.91504"
         transform="rotate(-90)" />
    </g>
    <g
       id="g281"
       transform="rotate(-90,172.91525,419.044)">
      <rect
         style="fill:#000000;stroke:none;stroke-width:0.299999;stroke-linecap:round"
         id="rect270"
         width="304.79999"
         height="38.099998"
         x="287.15924"
         y="246.12875" />
      <rect
         style="fill:#ff00ff;stroke:none;stroke-width:0.3;stroke-linecap:round"
         id="rect271"
         width="3.2"
         height="6.3499999"
         x="287.15924"
         y="246.12875" />
      <rect
         style="fill:#ff00ff;stroke:none;stroke-width:0.3;stroke-linecap:round"
         id="rect272"
         width="3.2"
         height="6.3499999"
         x="287.15924"
         y="277.87875" />
      <rect
         style="fill:#ff00ff;stroke:none;stroke-width:0.3;stroke-linecap:round"
         id="rect273"
         width="3.2"
         height="6.3499999"
         x="588.75922"
         y="246.12875" />
      <rect
         style="fill:#ff00ff;stroke:none;stroke-width:0.3;stroke-linecap:round"
         id="rect274"
         width="3.2"
         height="6.3499999"
         x="588.75922"
         y="277.87875" />
      <circle
         style="fill:#ff00ff;stroke:none;stroke-width:0.3;stroke-linecap:round"
         id="circle274"
         cx="309.93423"
         cy="265.17874"
         r="16.375" />
      <circle
         style="fill:#ff00ff;stroke:none;stroke-width:0.3;stroke-linecap:round"
         id="circle275"
         cx="569.1842"
         cy="265.17874"
         r="16.375" />
      <circle
         style="fill:#ff00ff;stroke:none;stroke-width:0.3;stroke-linecap:round"
         id="circle276"
         cx="346.96994"
         cy="265.17874"
         r="16.375" />
      <circle
         style="fill:#ff00ff;stroke:none;stroke-width:0.3;stroke-linecap:round"
         id="circle277"
         cx="384.00565"
         cy="265.17874"
         r="16.375" />
      <circle
         style="fill:#ff00ff;stroke:none;stroke-width:0.3;stroke-linecap:round"
         id="circle278"
         cx="421.04135"
         cy="265.17874"
         r="16.375" />
      <circle
         style="fill:#ff00ff;stroke:none;stroke-width:0.3;stroke-linecap:round"
         id="circle279"
         cx="458.07709"
         cy="265.17874"
         r="16.375" />
      <circle
         style="fill:#ff00ff;stroke:none;stroke-width:0.3;stroke-linecap:round"
         id="circle280"
         cx="532.1485"
         cy="265.17874"
         r="16.375" />
      <circle
         style="fill:#ff00ff;stroke:none;stroke-width:0.3;stroke-linecap:round"
         id="circle281"
         cx="495.11279"
         cy="265.17874"
         r="16.375" />
    </g>
    <g
       id="g294"
       transform="translate(465.23462,169.73928)">
      <rect
         style="fill:#000000;stroke:none;stroke-width:0.299999;stroke-linecap:round"
         id="rect281"
         width="304.79999"
         height="63.5"
         x="-135.06071"
         y="230.28461"
         transform="matrix(0,-1,-1,0,0,0)" />
      <circle
         style="fill:#ff00ff;stroke:none;stroke-width:0.3;stroke-linecap:round"
         id="circle282"
         cx="-115.96072"
         cy="246.15961"
         r="12.7"
         transform="matrix(0,-1,-1,0,0,0)" />
      <circle
         style="fill:#ff00ff;stroke:none;stroke-width:0.3;stroke-linecap:round"
         id="circle283"
         cx="-86.338501"
         cy="246.15961"
         r="12.7"
         transform="matrix(0,-1,-1,0,0,0)" />
      <circle
         style="fill:#ff00ff;stroke:none;stroke-width:0.3;stroke-linecap:round"
         id="circle284"
         cx="-56.716282"
         cy="246.15961"
         r="12.7"
         transform="matrix(0,-1,-1,0,0,0)" />
      <circle
         style="fill:#ff00ff;stroke:none;stroke-width:0.3;stroke-linecap:round"
         id="circle285"
         cx="-27.094059"
         cy="246.15961"
         r="12.7"
         transform="matrix(0,-1,-1,0,0,0)" />
      <circle
         style="fill:#ff00ff;stroke:none;stroke-width:0.3;stroke-linecap:round"
         id="circle286"
         cx="2.5281632"
         cy="246.15961"
         r="12.7"
         transform="matrix(0,-1,-1,0,0,0)" />
      <circle
         style="fill:#ff00ff;stroke:none;stroke-width:0.3;stroke-linecap:round"
         id="circle287"
         cx="32.150372"
         cy="246.15961"
         r="12.7"
         transform="matrix(0,-1,-1,0,0,0)" />
      <circle
         style="fill:#ff00ff;stroke:none;stroke-width:0.3;stroke-linecap:round"
         id="circle288"
         cx="61.772594"
         cy="246.15961"
         r="12.7"
         transform="matrix(0,-1,-1,0,0,0)" />
      <circle
         style="fill:#ff00ff;stroke:none;stroke-width:0.3;stroke-linecap:round"
         id="circle289"
         cx="91.394814"
         cy="246.15961"
         r="12.7"
         transform="matrix(0,-1,-1,0,0,0)" />
      <circle
         style="fill:#ff00ff;stroke:none;stroke-width:0.3;stroke-linecap:round"
         id="circle290"
         cx="121.01702"
         cy="246.15961"
         r="12.7"
         transform="matrix(0,-1,-1,0,0,0)" />
      <circle
         style="fill:#ff00ff;stroke:none;stroke-width:0.3;stroke-linecap:round"
         id="circle291"
         cx="150.63925"
         cy="246.15961"
         r="12.7"
         transform="matrix(0,-1,-1,0,0,0)" />
      <rect
         style="fill:#ff00ff;stroke:none;stroke-width:0.3;stroke-linecap:round"
         id="rect291"
         width="3.2"
         height="6.3499999"
         x="-135.06071"
         y="230.28461"
         transform="matrix(0,-1,-1,0,0,0)" />
      <rect
         style="fill:#ff00ff;stroke:none;stroke-width:0.3;stroke-linecap:round"
         id="rect292"
         width="3.2"
         height="6.3499999"
         x="166.53928"
         y="230.28461"
         transform="matrix(0,-1,-1,0,0,0)" />
      <rect
         style="fill:#ff00ff;stroke:none;stroke-width:0.3;stroke-linecap:round"
         id="rect293"
         width="3.2"
         height="6.3499999"
         x="-135.06073"
         y="-293.78461"
         transform="rotate(-90)" />
      <rect
         style="fill:#ff00ff;stroke:none;stroke-width:0.3;stroke-linecap:round"
         id="rect294"
         width="3.2"
         height="6.3499999"
         x="166.53926"
         y="-293.78461"
         transform="rotate(-90)" />
    </g>
    <g
       id="g299"
       transform="rotate(-90,472.71319,-143.31614)">
      <rect
         style="fill:#008080;stroke:none;stroke-width:0.299999;stroke-linecap:round"
         id="rect295"
         width="304.79999"
         height="31.75"
         x="24.597033"
         y="75.99382" />
      <rect
         style="fill:#ff00ff;stroke:none;stroke-width:0.3;stroke-linecap:round"
         id="rect296"
         width="3.2"
         height="6.3499999"
         x="24.597033"
         y="75.99382" />
      <rect
         style="fill:#ff00ff;stroke:none;stroke-width:0.3;stroke-linecap:round"
         id="rect297"
         width="3.2"
         height="6.3499999"
         x="24.597033"
         y="101.39382" />
      <rect
         style="fill:#ff00ff;stroke:none;stroke-width:0.3;stroke-linecap:round"
         id="rect298"
         width="3.2"
         height="6.3499999"
         x="326.19702"
         y="75.99382" />
      <rect
         style="fill:#ff00ff;stroke:none;stroke-width:0.3;stroke-linecap:round"
         id="rect299"
         width="3.2"
         height="6.3499999"
         x="326.19702"
         y="101.39382" />
    </g>
    <g
       id="g312"
       transform="translate(401.73462,169.73928)">
      <rect
         style="fill:#000000;stroke:none;stroke-width:0.299999;stroke-linecap:round"
         id="rect300"
         width="304.79999"
         height="63.5"
         x="-135.06071"
         y="230.28461"
         transform="matrix(0,-1,-1,0,0,0)" />
      <circle
         style="fill:#ff00ff;stroke:none;stroke-width:0.3;stroke-linecap:round"
         id="circle300"
         cx="-115.96072"
         cy="246.15961"
         r="12.7"
         transform="matrix(0,-1,-1,0,0,0)" />
      <circle
         style="fill:#ff00ff;stroke:none;stroke-width:0.3;stroke-linecap:round"
         id="circle301"
         cx="-86.338501"
         cy="246.15961"
         r="12.7"
         transform="matrix(0,-1,-1,0,0,0)" />
      <circle
         style="fill:#ff00ff;stroke:none;stroke-width:0.3;stroke-linecap:round"
         id="circle302"
         cx="-56.716282"
         cy="246.15961"
         r="12.7"
         transform="matrix(0,-1,-1,0,0,0)" />
      <circle
         style="fill:#ff00ff;stroke:none;stroke-width:0.3;stroke-linecap:round"
         id="circle303"
         cx="-27.094059"
         cy="246.15961"
         r="12.7"
         transform="matrix(0,-1,-1,0,0,0)" />
      <circle
         style="fill:#ff00ff;stroke:none;stroke-width:0.3;stroke-linecap:round"
         id="circle304"
         cx="2.5281632"
         cy="246.15961"
         r="12.7"
         transform="matrix(0,-1,-1,0,0,0)" />
      <circle
         style="fill:#ff00ff;stroke:none;stroke-width:0.3;stroke-linecap:round"
         id="circle305"
         cx="32.150372"
         cy="246.15961"
         r="12.7"
         transform="matrix(0,-1,-1,0,0,0)" />
      <circle
         style="fill:#ff00ff;stroke:none;stroke-width:0.3;stroke-linecap:round"
         id="circle306"
         cx="61.772594"
         cy="246.15961"
         r="12.7"
         transform="matrix(0,-1,-1,0,0,0)" />
      <circle
         style="fill:#ff00ff;stroke:none;stroke-width:0.3;stroke-linecap:round"
         id="circle307"
         cx="91.394814"
         cy="246.15961"
         r="12.7"
         transform="matrix(0,-1,-1,0,0,0)" />
      <circle
         style="fill:#ff00ff;stroke:none;stroke-width:0.3;stroke-linecap:round"
         id="circle308"
         cx="121.01702"
         cy="246.15961"
         r="12.7"
         transform="matrix(0,-1,-1,0,0,0)" />
      <circle
         style="fill:#ff00ff;stroke:none;stroke-width:0.3;stroke-linecap:round"
         id="circle309"
         cx="150.63925"
         cy="246.15961"
         r="12.7"
         transform="matrix(0,-1,-1,0,0,0)" />
      <rect
         style="fill:#ff00ff;stroke:none;stroke-width:0.3;stroke-linecap:round"
         id="rect309"
         width="3.2"
         height="6.3499999"
         x="-135.06071"
         y="230.28461"
         transform="matrix(0,-1,-1,0,0,0)" />
      <rect
         style="fill:#ff00ff;stroke:none;stroke-width:0.3;stroke-linecap:round"
         id="rect310"
         width="3.2"
         height="6.3499999"
         x="166.53928"
         y="230.28461"
         transform="matrix(0,-1,-1,0,0,0)" />
      <rect
         style="fill:#ff00ff;stroke:none;stroke-width:0.3;stroke-linecap:round"
         id="rect311"
         width="3.2"
         height="6.3499999"
         x="-135.06073"
         y="-293.78461"
         transform="rotate(-90)" />
      <rect
         style="fill:#ff00ff;stroke:none;stroke-width:0.3;stroke-linecap:round"
         id="rect312"
         width="3.2"
         height="6.3499999"
         x="166.53926"
         y="-293.78461"
         transform="rotate(-90)" />
    </g>
    <g
       id="g325"
       transform="translate(338.23462,169.73928)">
      <rect
         style="fill:#000000;stroke:none;stroke-width:0.299999;stroke-linecap:round"
         id="rect313"
         width="304.79999"
         height="69.849998"
         x="-135.06071"
         y="230.28461"
         transform="matrix(0,-1,-1,0,0,0)" />
      <circle
         style="fill:#ff00ff;stroke:none;stroke-width:0.3;stroke-linecap:round"
         id="circle313"
         cx="-115.96072"
         cy="246.15961"
         r="12.7"
         transform="matrix(0,-1,-1,0,0,0)" />
      <circle
         style="fill:#ff00ff;stroke:none;stroke-width:0.3;stroke-linecap:round"
         id="circle314"
         cx="-86.338501"
         cy="246.15961"
         r="12.7"
         transform="matrix(0,-1,-1,0,0,0)" />
      <circle
         style="fill:#ff00ff;stroke:none;stroke-width:0.3;stroke-linecap:round"
         id="circle315"
         cx="-56.716282"
         cy="246.15961"
         r="12.7"
         transform="matrix(0,-1,-1,0,0,0)" />
      <circle
         style="fill:#ff00ff;stroke:none;stroke-width:0.3;stroke-linecap:round"
         id="circle316"
         cx="-27.094059"
         cy="246.15961"
         r="12.7"
         transform="matrix(0,-1,-1,0,0,0)" />
      <circle
         style="fill:#ff00ff;stroke:none;stroke-width:0.3;stroke-linecap:round"
         id="circle317"
         cx="2.5281632"
         cy="246.15961"
         r="12.7"
         transform="matrix(0,-1,-1,0,0,0)" />
      <circle
         style="fill:#ff00ff;stroke:none;stroke-width:0.3;stroke-linecap:round"
         id="circle318"
         cx="32.150372"
         cy="246.15961"
         r="12.7"
         transform="matrix(0,-1,-1,0,0,0)" />
      <circle
         style="fill:#ff00ff;stroke:none;stroke-width:0.3;stroke-linecap:round"
         id="circle319"
         cx="61.772594"
         cy="246.15961"
         r="12.7"
         transform="matrix(0,-1,-1,0,0,0)" />
      <circle
         style="fill:#ff00ff;stroke:none;stroke-width:0.3;stroke-linecap:round"
         id="circle320"
         cx="91.394814"
         cy="246.15961"
         r="12.7"
         transform="matrix(0,-1,-1,0,0,0)" />
      <circle
         style="fill:#ff00ff;stroke:none;stroke-width:0.3;stroke-linecap:round"
         id="circle321"
         cx="121.01702"
         cy="246.15961"
         r="12.7"
         transform="matrix(0,-1,-1,0,0,0)" />
      <circle
         style="fill:#ff00ff;stroke:none;stroke-width:0.3;stroke-linecap:round"
         id="circle322"
         cx="150.63925"
         cy="246.15961"
         r="12.7"
         transform="matrix(0,-1,-1,0,0,0)" />
      <rect
         style="fill:#ff00ff;stroke:none;stroke-width:0.3;stroke-linecap:round"
         id="rect322"
         width="3.2"
         height="6.3499999"
         x="-135.06071"
         y="230.28461"
         transform="matrix(0,-1,-1,0,0,0)" />
      <rect
         style="fill:#ff00ff;stroke:none;stroke-width:0.3;stroke-linecap:round"
         id="rect323"
         width="3.2"
         height="6.3499999"
         x="166.53928"
         y="230.28461"
         transform="matrix(0,-1,-1,0,0,0)" />
      <rect
         style="fill:#ff00ff;stroke:none;stroke-width:0.3;stroke-linecap:round"
         id="rect324"
         width="3.2"
         height="6.3499999"
         x="-135.06073"
         y="-300.13461"
         transform="rotate(-90)" />
      <rect
         style="fill:#ff00ff;stroke:none;stroke-width:0.3;stroke-linecap:round"
         id="rect325"
         width="3.2"
         height="6.3499999"
         x="166.53926"
         y="-300.13461"
         transform="rotate(-90)" />
    </g>
    <g
       id="g330"
       transform="rotate(-90,456.83819,-127.44114)">
      <rect
         style="fill:#008080;stroke:none;stroke-width:0.299999;stroke-linecap:round"
         id="rect326"
         width="304.79999"
         height="31.75"
         x="24.597033"
         y="75.99382" />
      <rect
         style="fill:#ff00ff;stroke:none;stroke-width:0.3;stroke-linecap:round"
         id="rect327"
         width="3.2"
         height="6.3499999"
         x="24.597033"
         y="75.99382" />
      <rect
         style="fill:#ff00ff;stroke:none;stroke-width:0.3;stroke-linecap:round"
         id="rect328"
         width="3.2"
         height="6.3499999"
         x="24.597033"
         y="101.39382" />
      <rect
         style="fill:#ff00ff;stroke:none;stroke-width:0.3;stroke-linecap:round"
         id="rect329"
         width="3.2"
         height="6.3499999"
         x="326.19702"
         y="75.99382" />
      <rect
         style="fill:#ff00ff;stroke:none;stroke-width:0.3;stroke-linecap:round"
         id="rect330"
         width="3.2"
         height="6.3499999"
         x="326.19702"
         y="101.39382" />
    </g>
    <g
       id="g335"
       transform="rotate(-90,484.00183,107.95743)">
      <rect
         style="fill:#008080;stroke:none;stroke-width:0.299999;stroke-linecap:round"
         id="rect331"
         width="304.79999"
         height="38.099998"
         x="287.15924"
         y="246.12875" />
      <rect
         style="fill:#ff00ff;stroke:none;stroke-width:0.3;stroke-linecap:round"
         id="rect332"
         width="3.2"
         height="6.3499999"
         x="287.15924"
         y="246.12875" />
      <rect
         style="fill:#ff00ff;stroke:none;stroke-width:0.3;stroke-linecap:round"
         id="rect333"
         width="3.2"
         height="6.3499999"
         x="287.15924"
         y="277.87875" />
      <rect
         style="fill:#ff00ff;stroke:none;stroke-width:0.3;stroke-linecap:round"
         id="rect334"
         width="3.2"
         height="6.3499999"
         x="588.75922"
         y="246.12875" />
      <rect
         style="fill:#ff00ff;stroke:none;stroke-width:0.3;stroke-linecap:round"
         id="rect335"
         width="3.2"
         height="6.3499999"
         x="588.75922"
         y="277.87875" />
    </g>
    <path
       id="path348"
       style="fill:#00ff00;stroke:none;stroke-width:0.3;stroke-linecap:round"
       d="M 336.55 153.19944 L 336.55 214.69956 L 336.55 240.09956 L 336.55 301.6002 L 342.9 301.6002 L 342.9 298.40039 L 368.3 298.40039 L 368.3 301.6002 L 396.875 301.6002 L 396.875 298.40039 L 415.925 298.40039 L 415.925 301.6002 L 444.5 301.6002 L 444.5 298.40039 L 463.55 298.40039 L 463.55 301.6002 L 484.95076 301.6002 A 148.40056 148.40056 0 0 0 336.55 153.19944 z M 342.9 158.70039 L 368.3 158.70039 L 368.3 161.9002 L 342.9 161.9002 L 342.9 158.70039 z M 342.9 193.62539 L 400.05 193.62539 L 400.05 196.8252 L 342.9 196.8252 L 342.9 193.62539 z M 339.74981 214.69956 L 342.94961 214.69956 L 342.94961 240.09956 L 339.74981 240.09956 L 339.74981 214.69956 z M 381 228.55039 L 431.8 228.55039 L 431.8 231.7502 L 381 231.7502 L 381 228.55039 z M 412.75 263.47539 L 463.55 263.47539 L 463.55 266.6752 L 412.75 266.6752 L 412.75 263.47539 z " />
    <g
       id="g352"
       transform="rotate(-90,415.39064,176.56862)">
      <rect
         style="fill:#00ff00;stroke:none;stroke-width:0.299999;stroke-linecap:round"
         id="rect348"
         width="304.79999"
         height="38.099998"
         x="287.15924"
         y="246.12875" />
      <rect
         style="fill:#ff00ff;stroke:none;stroke-width:0.3;stroke-linecap:round"
         id="rect349"
         width="3.2"
         height="6.3499999"
         x="287.15924"
         y="246.12875" />
      <rect
         style="fill:#ff00ff;stroke:none;stroke-width:0.3;stroke-linecap:round"
         id="rect350"
         width="3.2"
         height="6.3499999"
         x="287.15924"
         y="277.87875" />
      <rect
         style="fill:#ff00ff;stroke:none;stroke-width:0.3;stroke-linecap:round"
         id="rect351"
         width="3.2"
         height="6.3499999"
         x="588.75922"
         y="246.12875" />
      <rect
         style="fill:#ff00ff;stroke:none;stroke-width:0.3;stroke-linecap:round"
         id="rect352"
         width="3.2"
         height="6.3499999"
         x="588.75922"
         y="277.87875" />
    </g>
    <path
       id="path353"
       style="fill:#00ff00;stroke:none;stroke-width:0.3;stroke-linecap:round"
       d="M 336.55 0 L 336.55 61.500639 L 336.55 86.90064 L 336.55 148.40076 A 148.40056 148.40056 0 0 0 484.95076 0 L 463.55 0 L 463.55 3.1998047 L 444.5 3.1998047 L 444.5 0 L 415.925 0 L 415.925 3.1998047 L 396.875 3.1998047 L 396.875 0 L 368.3 0 L 368.3 3.1998047 L 342.9 3.1998047 L 342.9 0 L 336.55 0 z M 412.75 34.925 L 463.55 34.925 L 463.55 38.124805 L 412.75 38.124805 L 412.75 34.925 z M 339.74981 61.500639 L 342.94961 61.500639 L 342.94961 86.90064 L 339.74981 86.90064 L 339.74981 61.500639 z M 381 69.850001 L 431.8 69.850001 L 431.8 73.049805 L 381 73.049805 L 381 69.850001 z M 342.9 104.775 L 400.05 104.775 L 400.05 107.97481 L 342.9 107.97481 L 342.9 104.775 z M 342.9 139.7 L 368.3 139.7 L 368.3 142.89981 L 342.9 142.89981 L 342.9 139.7 z " />
    <g
       id="g386"
       transform="rotate(-90,607.92296,259.30983)">
      <rect
         style="fill:#000000;stroke:none;stroke-width:0.299999;stroke-linecap:round"
         id="rect382"
         width="152.39999"
         height="31.75"
         x="176.99701"
         y="75.99382" />
      <rect
         style="fill:#ff00ff;stroke:none;stroke-width:0.3;stroke-linecap:round"
         id="rect383"
         width="3.2"
         height="6.3499999"
         x="176.99701"
         y="75.99382" />
      <rect
         style="fill:#ff00ff;stroke:none;stroke-width:0.3;stroke-linecap:round"
         id="rect384"
         width="3.2"
         height="6.3499999"
         x="176.99701"
         y="101.39382" />
      <rect
         style="fill:#ff00ff;stroke:none;stroke-width:0.3;stroke-linecap:round"
         id="rect385"
         width="3.2"
         height="6.3499999"
         x="326.19702"
         y="75.99382" />
      <rect
         style="fill:#ff00ff;stroke:none;stroke-width:0.3;stroke-linecap:round"
         id="rect386"
         width="3.2"
         height="6.3499999"
         x="326.19702"
         y="101.39382" />
    </g>
    <path
       id="path388"
       style="fill:#0000ff;stroke:none;stroke-width:0.3;stroke-linecap:round"
       d="m 325.40717,435.23094 v 86.50428 h 31.75 v -3.19981 h 25.4 v 3.19981 h 29.35377 a 86.50396,86.50396 0 0 0 -86.50377,-86.50428 z m 6.35,13.45447 h 19.05 v 3.19981 h -19.05 z m 0,34.925 h 50.8 v 3.19981 h -50.8 z m -3.15019,9.28729 h 3.1998 v 19.05 h -3.1998 z" />
    <g
       id="g399"
       transform="rotate(-90,588.99467,538.83373)">
      <rect
         style="fill:#000000;stroke:none;stroke-width:0.299999;stroke-linecap:round"
         id="rect395"
         width="152.39999"
         height="38.099998"
         x="439.55923"
         y="246.12875" />
      <rect
         style="fill:#ff00ff;stroke:none;stroke-width:0.3;stroke-linecap:round"
         id="rect396"
         width="3.2"
         height="6.3499999"
         x="439.55923"
         y="246.12875" />
      <rect
         style="fill:#ff00ff;stroke:none;stroke-width:0.3;stroke-linecap:round"
         id="rect397"
         width="3.2"
         height="6.3499999"
         x="439.55923"
         y="277.87875" />
      <rect
         style="fill:#ff00ff;stroke:none;stroke-width:0.3;stroke-linecap:round"
         id="rect398"
         width="3.2"
         height="6.3499999"
         x="588.75922"
         y="246.12875" />
      <rect
         style="fill:#ff00ff;stroke:none;stroke-width:0.3;stroke-linecap:round"
         id="rect399"
         width="3.2"
         height="6.3499999"
         x="588.75922"
         y="277.87875" />
    </g>
    <path
       id="path399"
       style="fill:#0000ff;stroke:none;stroke-width:0.3;stroke-linecap:round"
       d="m 325.40717,348.72666 v 86.50428 h 31.75 v -3.19981 h 25.4 v 3.19981 h 29.35377 a 86.50396,86.50396 0 0 0 -86.50377,-86.50428 z m 6.35,13.45447 h 19.05 v 3.19981 h -19.05 z m 0,34.925 h 50.8 v 3.19981 h -50.8 z m -3.15019,9.28729 h 3.1998 v 19.05 h -3.1998 z" />
    <g
       id="g408"
       transform="translate(-202.79931,-13.500364)">
      <rect
         style="fill:#000000;stroke:none;stroke-width:0.299999;stroke-linecap:round"
         id="rect401"
         width="152.39999"
         height="31.75"
         x="-521.2323"
         y="-804.41504"
         transform="matrix(0,-1,-1,0,0,0)" />
      <circle
         style="fill:#ff00ff;stroke:none;stroke-width:0.3;stroke-linecap:round"
         id="circle401"
         cx="-502.13226"
         cy="-788.54004"
         r="12.7"
         transform="matrix(0,-1,-1,0,0,0)" />
      <circle
         style="fill:#ff00ff;stroke:none;stroke-width:0.3;stroke-linecap:round"
         id="circle402"
         cx="-473.58228"
         cy="-788.54004"
         r="12.7"
         transform="matrix(0,-1,-1,0,0,0)" />
      <circle
         style="fill:#ff00ff;stroke:none;stroke-width:0.3;stroke-linecap:round"
         id="circle403"
         cx="-445.03229"
         cy="-788.54004"
         r="12.7"
         transform="matrix(0,-1,-1,0,0,0)" />
      <circle
         style="fill:#ff00ff;stroke:none;stroke-width:0.3;stroke-linecap:round"
         id="circle404"
         cx="-416.4823"
         cy="-788.54004"
         r="12.7"
         transform="matrix(0,-1,-1,0,0,0)" />
      <circle
         style="fill:#ff00ff;stroke:none;stroke-width:0.3;stroke-linecap:round"
         id="circle405"
         cx="-387.93231"
         cy="-788.54004"
         r="12.7"
         transform="matrix(0,-1,-1,0,0,0)" />
      <rect
         style="fill:#ff00ff;stroke:none;stroke-width:0.3;stroke-linecap:round"
         id="rect405"
         width="3.2"
         height="6.3499999"
         x="-521.23224"
         y="-804.41504"
         transform="matrix(0,-1,-1,0,0,0)" />
      <rect
         style="fill:#ff00ff;stroke:none;stroke-width:0.3;stroke-linecap:round"
         id="rect406"
         width="3.2"
         height="6.3499999"
         x="-372.03229"
         y="-804.41504"
         transform="matrix(0,-1,-1,0,0,0)" />
      <rect
         style="fill:#ff00ff;stroke:none;stroke-width:0.3;stroke-linecap:round"
         id="rect407"
         width="3.2"
         height="6.3499999"
         x="-521.2323"
         y="772.66504"
         transform="rotate(-90)" />
      <rect
         style="fill:#ff00ff;stroke:none;stroke-width:0.3;stroke-linecap:round"
         id="rect408"
         width="3.2"
         height="6.3499999"
         x="-372.03232"
         y="772.66504"
         transform="rotate(-90)" />
    </g>
    <text
       xml:space="preserve"
       transform="scale(0.26458334)"
       id="text1"
       style="font-style:normal;font-variant:normal;font-weight:normal;font-stretch:normal;font-size:32px;line-height:100%;font-family:sans-serif;-inkscape-font-specification:sans-serif;letter-spacing:0px;word-spacing:0px;white-space:pre;shape-inside:url(#rect1);fill:#000000;fill-opacity:1;stroke:none;stroke-width:1px;stroke-linecap:butt;stroke-linejoin:miter;stroke-opacity:1"><tspan
         x="108.22852"
         y="1340.5813"
         id="tspan1">Assumes 3.2mm thick MDF.
</tspan><tspan
         x="108.22852"
         y="1372.5813"
         id="tspan2">The large circles hold a GW or ProAcryl Pot
</tspan><tspan
         x="108.22852"
         y="1404.5813"
         id="tspan3">The small ones hold Vallejo or similar </tspan></text>
  </g>
</svg>
